<svg width="151" height="36" viewBox="0 0 151 36" fill="none" xmlns="http://www.w3.org/2000/svg">
<path d="M49.1932 10.495V7.18182H66.6009V10.495H59.8572V29H55.9368V10.495H49.1932ZM72.2685 29.3303C71.2315 29.3303 70.2976 29.1456 69.4666 28.7763C68.6428 28.3999 67.9893 27.8459 67.5064 27.1143C67.0305 26.3828 66.7926 25.4808 66.7926 24.4084C66.7926 23.4851 66.9631 22.7216 67.304 22.1179C67.6449 21.5142 68.1101 21.0312 68.6996 20.669C69.2891 20.3068 69.9531 20.0334 70.6918 19.8487C71.4375 19.657 72.2081 19.5185 73.0036 19.4332C73.9624 19.3338 74.7401 19.245 75.3366 19.1669C75.9332 19.0817 76.3665 18.9538 76.6364 18.7834C76.9134 18.6058 77.0518 18.3324 77.0518 17.9631V17.8991C77.0518 17.0966 76.8139 16.4751 76.3381 16.0348C75.8622 15.5945 75.1768 15.3743 74.282 15.3743C73.3374 15.3743 72.5881 15.5803 72.0341 15.9922C71.4872 16.4041 71.1179 16.8906 70.9261 17.4517L67.3253 16.9403C67.6094 15.946 68.0781 15.1151 68.7315 14.4474C69.3849 13.7727 70.1839 13.2685 71.1286 12.9347C72.0732 12.5938 73.1172 12.4233 74.2607 12.4233C75.049 12.4233 75.8338 12.5156 76.6151 12.7003C77.3963 12.8849 78.1101 13.1903 78.7564 13.6165C79.4027 14.0355 79.9212 14.6072 80.3118 15.3317C80.7095 16.0561 80.9084 16.9616 80.9084 18.0483V29H77.201V26.7521H77.0732C76.8388 27.2067 76.5085 27.6328 76.0824 28.0305C75.6634 28.4212 75.1342 28.7372 74.495 28.9787C73.8629 29.2131 73.1207 29.3303 72.2685 29.3303ZM73.2699 26.4964C74.044 26.4964 74.7152 26.3437 75.2834 26.0384C75.8516 25.7259 76.2884 25.3139 76.5938 24.8026C76.9062 24.2912 77.0625 23.7337 77.0625 23.13V21.2017C76.9418 21.3011 76.7358 21.3935 76.4446 21.4787C76.1605 21.5639 75.8409 21.6385 75.4858 21.7024C75.1307 21.7663 74.7791 21.8232 74.4311 21.8729C74.0831 21.9226 73.7813 21.9652 73.5256 22.0007C72.9503 22.0788 72.4354 22.2067 71.9808 22.3842C71.5263 22.5618 71.1676 22.8104 70.9048 23.13C70.642 23.4425 70.5107 23.8473 70.5107 24.3445C70.5107 25.0547 70.7699 25.5909 71.2884 25.9531C71.8068 26.3153 72.4673 26.4964 73.2699 26.4964ZM97.7195 16.9616L94.2038 17.3452C94.1044 16.9901 93.9304 16.6562 93.6818 16.3438C93.4403 16.0312 93.1136 15.7791 92.7017 15.5874C92.2898 15.3956 91.7855 15.2997 91.1889 15.2997C90.3864 15.2997 89.7116 15.4737 89.1648 15.8217C88.625 16.1697 88.3587 16.6207 88.3658 17.1747C88.3587 17.6506 88.5327 18.0376 88.8878 18.3359C89.25 18.6342 89.8466 18.8793 90.6776 19.071L93.4688 19.6676C95.017 20.0014 96.1676 20.5305 96.9205 21.255C97.6804 21.9794 98.0639 22.9276 98.071 24.0994C98.0639 25.1293 97.7621 26.0384 97.1655 26.8267C96.576 27.608 95.7557 28.2187 94.7045 28.6591C93.6534 29.0994 92.446 29.3196 91.0824 29.3196C89.0795 29.3196 87.4673 28.9006 86.2457 28.0625C85.0241 27.2173 84.2962 26.0419 84.0618 24.5362L87.8224 24.174C87.9929 24.9126 88.3551 25.4702 88.9091 25.8466C89.4631 26.223 90.1839 26.4112 91.0717 26.4112C91.9879 26.4112 92.723 26.223 93.277 25.8466C93.8381 25.4702 94.1186 25.005 94.1186 24.451C94.1186 23.9822 93.9375 23.5952 93.5753 23.2898C93.2202 22.9844 92.6662 22.75 91.9134 22.5866L89.1222 22.0007C87.5526 21.674 86.3913 21.1236 85.6385 20.3494C84.8857 19.5682 84.5128 18.581 84.5199 17.3878C84.5128 16.3793 84.7862 15.5057 85.3402 14.767C85.9013 14.0213 86.679 13.446 87.6733 13.0412C88.6747 12.6293 89.8288 12.4233 91.1357 12.4233C93.0533 12.4233 94.5625 12.8317 95.6634 13.6484C96.7713 14.4652 97.4567 15.5696 97.7195 16.9616ZM104.767 23.8651L104.756 19.2095H105.374L111.255 12.6364H115.761L108.527 20.6903H107.728L104.767 23.8651ZM101.251 29V7.18182H105.108V29H101.251ZM111.521 29L106.194 21.5533L108.794 18.8366L116.134 29H111.521ZM120.707 29.2344C120.061 29.2344 119.507 29.0071 119.045 28.5526C118.583 28.098 118.356 27.544 118.363 26.8906C118.356 26.2514 118.583 25.7045 119.045 25.25C119.507 24.7955 120.061 24.5682 120.707 24.5682C121.332 24.5682 121.875 24.7955 122.337 25.25C122.806 25.7045 123.044 26.2514 123.051 26.8906C123.044 27.3239 122.93 27.718 122.71 28.0732C122.497 28.4283 122.213 28.7124 121.857 28.9254C121.509 29.1314 121.126 29.2344 120.707 29.2344ZM130.889 7.18182V29H127.032V7.18182H130.889ZM137.252 35.1364C136.726 35.1364 136.24 35.0938 135.792 35.0085C135.352 34.9304 135 34.8381 134.737 34.7315L135.632 31.7273C136.193 31.8906 136.694 31.9688 137.134 31.9616C137.575 31.9545 137.962 31.8161 138.296 31.5462C138.637 31.2834 138.924 30.843 139.159 30.2251L139.489 29.3409L133.555 12.6364H137.646L141.417 24.9943H141.588L145.369 12.6364H149.471L142.919 30.9815C142.614 31.848 142.209 32.5902 141.705 33.2081C141.2 33.8331 140.583 34.3089 139.851 34.6357C139.127 34.9695 138.26 35.1364 137.252 35.1364Z" fill="#7E5BAB"/>
<path d="M0 7.00001C0 5.67452 1.07452 4.60001 2.4 4.60001H27.6C28.9255 4.60001 30 5.67452 30 7.00001V32.2C30 33.5255 28.9255 34.6 27.6 34.6H2.4C1.07452 34.6 0 33.5255 0 32.2V7.00001Z" fill="#7E5BAB"/>
<path d="M17.0877 15.2738L20.1985 18.4351L13.0823 25.4471L9.71342 28.4494L7.10265 28.8036L7.14978 26.1978L17.0877 15.2738Z" fill="#53278B"/>
<rect x="20.5417" y="11.7974" width="4.41144" height="2.96741" rx="1.2" transform="rotate(44.9764 20.5417 11.7974)" fill="#C69EF9"/>
<rect x="19.1384" y="13.2349" width="4.38388" height="1.60017" transform="rotate(44.9764 19.1384 13.2349)" fill="#C69EF9"/>
<circle cx="15.6" cy="5.8" r="4.8" fill="#7E5BAB"/>
<circle cx="15.6" cy="5.79999" r="2.4" fill="white"/>
</svg>
