<svg width="175" height="133" viewBox="0 0 175 133" fill="none" xmlns="http://www.w3.org/2000/svg">
<g clip-path="url(#clip0_2126_131)">
<path d="M72.0339 91.4829C72.0339 96.0398 68.4953 99.7339 64.1299 99.7339C59.7646 99.7339 56.226 96.0398 56.226 91.4829C56.226 91.3796 56.2276 91.277 56.2318 91.1746C56.3119 86.6185 59.9161 82.9942 64.2806 83.0793C68.6451 83.1644 72.1168 86.9268 72.0353 91.4829H72.0339Z" fill="#9E78CF"/>
<path d="M61.3464 95.1473L59.0699 92.1119L59.609 91.7073L61.4637 94.1802L68.7656 88.2066L69.1925 88.7284L61.3464 95.1473Z" fill="white"/>
<path d="M174.76 131.563H0V132.037H174.76V131.563Z" fill="#E6E6E6"/>
<path d="M115.066 46.3893C115.229 46.464 115.387 46.5517 115.536 46.6516L130.487 40.2707L131.02 36.3324L136.994 36.2957L136.641 45.329L116.908 50.5482C116.866 50.6853 116.816 50.8197 116.758 50.9507C116.473 51.5594 116.014 52.0703 115.439 52.4191C114.865 52.768 114.2 52.9392 113.528 52.9114C112.856 52.8835 112.208 52.6578 111.664 52.2626C111.12 51.8674 110.705 51.3203 110.471 50.69C110.237 50.0597 110.194 49.3743 110.349 48.7199C110.503 48.0655 110.847 47.4713 111.338 47.0119C111.829 46.5525 112.445 46.2484 113.108 46.1377C113.771 46.0271 114.452 46.1149 115.065 46.39L115.066 46.3893Z" fill="#A0616A"/>
<path d="M139.166 128.242H135.08L133.136 112.479H139.167L139.166 128.242Z" fill="#A0616A"/>
<path d="M132.161 127.074H140.042V132.035H127.198C127.198 130.719 127.721 129.457 128.652 128.526C129.582 127.596 130.845 127.073 132.161 127.073V127.074Z" fill="#2F2E41"/>
<path d="M155.06 127.087L150.993 127.487L147.513 111.991L153.515 111.402L155.06 127.087Z" fill="#A0616A"/>
<path d="M147.971 126.613L155.813 125.84L156.299 130.778L143.52 132.037C143.391 130.727 143.788 129.42 144.622 128.403C145.457 127.386 146.662 126.742 147.971 126.613Z" fill="#2F2E41"/>
<path d="M140.304 19.6134C144.825 19.6134 148.491 15.948 148.491 11.4265C148.491 6.90503 144.825 3.23962 140.304 3.23962C135.782 3.23962 132.117 6.90503 132.117 11.4265C132.117 15.948 135.782 19.6134 140.304 19.6134Z" fill="#A0616A"/>
<path d="M134.166 125.054C133.815 125.055 133.475 124.932 133.206 124.706C132.936 124.48 132.755 124.167 132.695 123.821C130.581 112.081 123.665 73.6876 123.5 72.6232C123.496 72.5988 123.494 72.5741 123.494 72.5494V69.6863C123.494 69.5821 123.527 69.4804 123.587 69.3956L124.501 68.1173C124.544 68.0557 124.601 68.0049 124.667 67.9688C124.733 67.9327 124.807 67.9122 124.882 67.909C130.09 67.6649 147.143 66.9492 147.967 67.9786C148.795 69.0119 148.501 72.1477 148.434 72.7653L148.437 72.8297L156.099 121.829C156.159 122.22 156.063 122.619 155.831 122.939C155.599 123.259 155.251 123.475 154.86 123.541L150.075 124.329C149.719 124.386 149.354 124.314 149.046 124.124C148.739 123.935 148.51 123.642 148.4 123.298C146.92 118.569 141.957 102.659 140.237 96.5022C140.228 96.4616 140.204 96.426 140.169 96.4025C140.135 96.379 140.093 96.3692 140.052 96.3752C140.011 96.3811 139.973 96.4024 139.947 96.4347C139.921 96.467 139.908 96.508 139.91 96.5496C139.996 102.418 140.204 117.391 140.277 122.562L140.284 123.119C140.288 123.496 140.149 123.861 139.897 124.141C139.644 124.42 139.296 124.595 138.92 124.631L134.306 125.049C134.259 125.053 134.213 125.055 134.166 125.054Z" fill="#2F2E41"/>
<path d="M135.108 22.8328C133.679 23.6822 132.824 25.2427 132.334 26.8335C131.426 29.7739 130.879 32.8139 130.706 35.8864L130.187 45.0858L123.769 69.4759C129.332 74.1828 132.54 73.1128 140.029 69.2628C147.517 65.4129 148.373 70.5464 148.373 70.5464L149.87 49.7937L152.009 27.1164C151.529 26.5382 150.985 26.0156 150.389 25.5585C148.411 24.0205 146.111 22.9514 143.66 22.4317C141.209 21.912 138.673 21.9554 136.241 22.5584L135.108 22.8328Z" fill="#9E78CF"/>
<path d="M133.023 51.315C133.196 51.3795 133.363 51.4576 133.523 51.5484L148.307 44.1484L148.552 40.1398L154.65 39.7194L154.977 48.8572L135.221 55.391C135.06 56.0833 134.692 56.7101 134.166 57.188C133.64 57.6659 132.981 57.9723 132.276 58.0664C131.571 58.1606 130.855 58.0379 130.222 57.7149C129.589 57.3918 129.069 56.8836 128.732 56.258C128.395 55.6323 128.256 54.9187 128.334 54.2122C128.412 53.5058 128.704 52.8399 129.17 52.3031C129.636 51.7664 130.254 51.3842 130.942 51.2075C131.631 51.0307 132.357 51.0678 133.024 51.3138L133.023 51.315Z" fill="#A0616A"/>
<path d="M151.903 27.2185C155.54 28.502 156.181 42.4098 156.181 42.4098C151.902 40.0565 146.767 43.9074 146.767 43.9074C146.767 43.9074 145.698 40.27 144.414 35.5635C144.026 34.2396 143.98 32.8391 144.279 31.4924C144.578 30.1457 145.213 28.8967 146.125 27.8614C146.125 27.8614 148.266 25.9342 151.903 27.2185Z" fill="#9E78CF"/>
<path d="M147.643 13.591C146.623 12.775 145.232 14.2576 145.232 14.2576L144.416 6.91512C144.416 6.91512 139.316 7.52613 136.051 6.71106C132.786 5.89599 132.277 9.67022 132.277 9.67022C132.108 8.14599 132.074 6.60994 132.175 5.07974C132.379 3.24365 135.031 1.40755 139.723 0.183408C144.415 -1.04073 146.863 4.26372 146.863 4.26372C150.129 5.89458 148.665 14.4079 147.643 13.591Z" fill="#2F2E41"/>
<path d="M38.1445 10.7836C37.9497 10.7839 37.7629 10.8616 37.6253 10.9995C37.4876 11.1374 37.4103 11.3243 37.4103 11.5191C37.4103 11.714 37.4876 11.9009 37.6253 12.0388C37.7629 12.1767 37.9497 12.2543 38.1445 12.2547H91.8493C92.0442 12.2543 92.2309 12.1767 92.3686 12.0388C92.5062 11.9009 92.5835 11.714 92.5835 11.5191C92.5835 11.3243 92.5062 11.1374 92.3686 10.9995C92.2309 10.8616 92.0442 10.7839 91.8493 10.7836H38.1445Z" fill="#CCCCCC"/>
<path d="M38.1445 15.1969C37.9496 15.1968 37.7626 15.274 37.6246 15.4117C37.4866 15.5493 37.4089 15.7361 37.4084 15.931C37.408 16.1259 37.485 16.313 37.6224 16.4512C37.7599 16.5894 37.9465 16.6674 38.1414 16.6681H72.0941C72.1907 16.6681 72.2864 16.649 72.3756 16.6121C72.4649 16.5751 72.546 16.5209 72.6143 16.4526C72.6826 16.3843 72.7368 16.3032 72.7737 16.214C72.8107 16.1248 72.8297 16.0291 72.8297 15.9325C72.8297 15.8359 72.8107 15.7403 72.7737 15.651C72.7368 15.5618 72.6826 15.4807 72.6143 15.4124C72.546 15.3441 72.4649 15.2899 72.3756 15.2529C72.2864 15.216 72.1907 15.1969 72.0941 15.1969H38.1445Z" fill="#CCCCCC"/>
<path d="M91.1762 5.16059C91.1762 6.94419 89.7912 8.39009 88.0826 8.39009C86.3739 8.39009 84.9889 6.9442 84.9889 5.16059C84.9889 5.12016 84.9895 5.08002 84.9912 5.03993C85.0225 3.25666 86.4332 1.83808 88.1415 1.87139C89.8498 1.90469 91.2087 3.37733 91.1767 5.16059H91.1762Z" fill="#9E78CF"/>
<path d="M86.9932 6.59486L86.1022 5.40678L86.3132 5.2484L87.0391 6.2163L89.8971 3.87824L90.0642 4.08245L86.9932 6.59486Z" fill="white"/>
<path d="M38.1445 37.771C37.9497 37.7714 37.7629 37.849 37.6253 37.987C37.4876 38.1249 37.4103 38.3117 37.4103 38.5066C37.4103 38.7015 37.4876 38.8884 37.6253 39.0263C37.7629 39.1642 37.9497 39.2418 38.1445 39.2422H91.8493C92.0442 39.2418 92.2309 39.1642 92.3686 39.0263C92.5062 38.8884 92.5835 38.7015 92.5835 38.5066C92.5835 38.3117 92.5062 38.1249 92.3686 37.987C92.2309 37.849 92.0442 37.7714 91.8493 37.771H38.1445Z" fill="#CCCCCC"/>
<path d="M38.1445 42.1844C37.9496 42.1843 37.7626 42.2615 37.6246 42.3991C37.4866 42.5368 37.4089 42.7235 37.4084 42.9184C37.408 43.1133 37.485 43.3004 37.6224 43.4386C37.7599 43.5769 37.9465 43.6549 38.1414 43.6555H72.0941C72.2892 43.6555 72.4763 43.5781 72.6143 43.4401C72.7522 43.3022 72.8297 43.1151 72.8297 42.92C72.8297 42.7249 72.7522 42.5378 72.6143 42.3999C72.4763 42.2619 72.2892 42.1844 72.0941 42.1844H38.1445Z" fill="#CCCCCC"/>
<path d="M90.9395 32.1481C90.9395 33.9317 89.5545 35.3776 87.8459 35.3776C86.1372 35.3776 84.7522 33.9317 84.7522 32.1481C84.7522 32.1076 84.7528 32.0675 84.7545 32.0274C84.7858 30.2441 86.1966 28.8256 87.9048 28.8589C89.6131 28.8922 90.972 30.3648 90.94 32.1481H90.9395Z" fill="#9E78CF"/>
<path d="M86.7564 33.5823L85.8654 32.3943L86.0764 32.2359L86.8023 33.2038L89.6603 30.8657L89.8274 31.0699L86.7564 33.5823Z" fill="white"/>
<path d="M38.1445 64.7585C37.9497 64.7589 37.7629 64.8365 37.6253 64.9744C37.4876 65.1123 37.4103 65.2992 37.4103 65.4941C37.4103 65.6889 37.4876 65.8758 37.6253 66.0137C37.7629 66.1516 37.9497 66.2293 38.1445 66.2297H91.8493C92.0442 66.2293 92.2309 66.1516 92.3686 66.0137C92.5062 65.8758 92.5835 65.6889 92.5835 65.4941C92.5835 65.2992 92.5062 65.1123 92.3686 64.9744C92.2309 64.8365 92.0442 64.7589 91.8493 64.7585H38.1445Z" fill="#CCCCCC"/>
<path d="M38.1445 69.1719C37.9496 69.1718 37.7626 69.249 37.6246 69.3866C37.4866 69.5242 37.4089 69.711 37.4084 69.9059C37.408 70.1008 37.485 70.2879 37.6224 70.4261C37.7599 70.5643 37.9465 70.6423 38.1414 70.643H72.0941C72.2892 70.643 72.4763 70.5655 72.6143 70.4276C72.7522 70.2896 72.8297 70.1026 72.8297 69.9075C72.8297 69.7124 72.7522 69.5253 72.6143 69.3873C72.4763 69.2494 72.2892 69.1719 72.0941 69.1719H38.1445Z" fill="#CCCCCC"/>
<path d="M90.9395 59.1355C90.9395 60.9191 89.5545 62.365 87.8459 62.365C86.1372 62.365 84.7522 60.9192 84.7522 59.1355C84.7522 59.0951 84.7528 59.055 84.7545 59.0149C84.7858 57.2316 86.1966 55.813 87.9048 55.8463C89.6131 55.8796 90.972 57.3523 90.94 59.1355H90.9395Z" fill="#9E78CF"/>
<path d="M86.7564 60.5698L85.8654 59.3817L86.0764 59.2234L86.8023 60.1913L89.6603 57.8532L89.8274 58.0574L86.7564 60.5698Z" fill="white"/>
</g>
<defs>
<clipPath id="clip0_2126_131">
<rect width="174.76" height="132.037" fill="white"/>
</clipPath>
</defs>
</svg>
