<svg width="19" height="19" viewBox="0 0 19 19" fill="none" xmlns="http://www.w3.org/2000/svg">
<path d="M17.888 17.9902C17.7031 18.1728 17.4533 18.2745 17.1935 18.2729C16.9336 18.2713 16.6851 18.1666 16.5025 17.9817L9.61762 11.0115L2.64745 17.8964C2.46258 18.079 2.21276 18.1807 1.95293 18.1791C1.69309 18.1775 1.44454 18.0727 1.26194 17.8879C1.07934 17.703 0.97766 17.4532 0.97926 17.1934C0.980859 16.9335 1.08561 16.685 1.27047 16.5024L8.24064 9.61751L1.35578 2.64734C1.17318 2.46248 1.0715 2.21265 1.0731 1.95282C1.0747 1.69299 1.17945 1.44443 1.36431 1.26184C1.54917 1.07924 1.799 0.977555 2.05883 0.979155C2.31866 0.980755 2.56722 1.08551 2.74981 1.27037L9.63468 8.24054L16.6048 1.35567C16.7897 1.17308 17.0395 1.07139 17.2994 1.07299C17.5592 1.07459 17.8078 1.17934 17.9904 1.36421C18.1729 1.54907 18.2746 1.79889 18.273 2.05872C18.2714 2.31856 18.1667 2.56711 17.9818 2.74971L11.0117 9.63457L17.8965 16.6047C18.0791 16.7896 18.1808 17.0394 18.1792 17.2993C18.1776 17.5591 18.0728 17.8076 17.888 17.9902Z" fill="white"/>
</svg>
