<svg width="30" height="34" viewBox="0 0 30 34" fill="none" xmlns="http://www.w3.org/2000/svg">
<path d="M0 6.00001C0 4.67452 1.07452 3.60001 2.4 3.60001H27.6C28.9255 3.60001 30 4.67452 30 6.00001V31.2C30 32.5255 28.9255 33.6 27.6 33.6H2.4C1.07452 33.6 0 32.5255 0 31.2V6.00001Z" fill="#7E5BAB"/>
<path d="M17.0877 14.2738L20.1985 17.4351L13.0823 24.4471L9.71342 27.4494L7.10265 27.8036L7.14978 25.1978L17.0877 14.2738Z" fill="#53278B"/>
<rect x="20.5417" y="10.7974" width="4.41144" height="2.96741" rx="1.2" transform="rotate(44.9764 20.5417 10.7974)" fill="#C69EF9"/>
<rect x="19.1384" y="12.2349" width="4.38388" height="1.60017" transform="rotate(44.9764 19.1384 12.2349)" fill="#C69EF9"/>
<circle cx="15.6" cy="4.8" r="4.8" fill="#7E5BAB"/>
<circle cx="15.6" cy="4.79999" r="2.4" fill="white"/>
</svg>
